<svg version="1.1" xmlns="http://www.w3.org/2000/svg" viewBox="-26.000001 -30.720005081290847 52.00000200000001 64.12448510165439" fill="none" stroke="black" stroke-width="0.6%" vector-effect="non-scaling-stroke">
    <path d="M -14.14214 -26.57495 A 20 10.7379 360 0 1 20 -18.9821 A 20 10.7379 360 0 1 -20 -18.9821 A 20 10.7379 360 0 1 -14.14214 -26.57495 Z" />
    <path d="M -20 -10.54561 A 20 10.7379 180 0 0 20 -10.54561" />
    <path d="M 25 -10.54561 L 20 -17.02651" />
    <path d="M -20 -17.02651 L -25 -10.54561 L -17.67767 -1.05456 L 0 2.87676 L 17.67767 -1.05456 L 25 -10.54561" />
    <path d="M 25 18.9821 L 25 -10.54561" />
    <path d="M -25 18.9821 L -25 -10.54561" />
    <path d="M -17.67767 28.47316 L -17.67767 -1.05456" />
    <path d="M -25 18.9821 L -17.67767 28.47316 L 0 32.40448 L 17.67767 28.47316 L 17.67767 -1.05456" />
    <path d="M 0 32.40448 L 0 2.87676" />
    <path d="M 17.67767 28.47316 L 25 18.9821" />
    <path d="M -20 -18.9821 L -20 -10.54561" />
    <path d="M 20 -18.9821 L 20 -10.54561" />
</svg>